<svg xmlns="http://www.w3.org/2000/svg" xmlns:xlink="http://www.w3.org/1999/xlink" preserveAspectRatio="xMidYMid meet" version="1.0" viewBox="1.5 1.5 45.0 45.5" zoomAndPan="magnify" style="fill: rgb(0, 0, 0);" original_string_length="7761"><g id="__id349_sh16wtnq5g"><path d="M 24 1.5 C 22.273438 1.5 20.90625 2.90625 20.90625 4.617188 C 20.90625 5.324219 21.132812 5.96875 21.527344 6.496094 C 20.089844 7.347656 19.144531 8.921875 19.144531 10.722656 L 19.144531 11.421875 C 19.144531 12.996094 20.402344 14.25 21.945312 14.25 L 26.054688 14.25 C 27.597656 14.25 28.855469 12.988281 28.855469 11.421875 L 28.855469 10.722656 C 28.855469 8.921875 27.910156 7.347656 26.472656 6.496094 C 26.871094 5.96875 27.09375 5.324219 27.09375 4.617188 C 27.09375 2.90625 25.726562 1.5 24 1.5 Z M 24 3 C 24.871094 3 25.59375 3.710938 25.59375 4.617188 C 25.59375 5.523438 24.871094 6.238281 24 6.238281 C 23.128906 6.238281 22.402344 5.523438 22.402344 4.617188 C 22.402344 3.710938 23.128906 3 24 3 Z M 22.859375 7.515625 C 23.222656 7.664062 23.605469 7.734375 24 7.734375 C 24.394531 7.734375 24.746094 7.671875 25.144531 7.515625 C 26.410156 7.976562 27.355469 9.21875 27.355469 10.722656 L 27.355469 11.421875 C 27.355469 12.152344 26.785156 12.75 26.054688 12.75 L 21.945312 12.75 C 21.214844 12.75 20.644531 12.152344 20.644531 11.421875 L 20.644531 10.722656 C 20.644531 9.195312 21.621094 7.953125 22.859375 7.515625 Z M 14.960938 11.40625 C 14.839844 11.414062 14.726562 11.449219 14.628906 11.511719 C 8.800781 14.875 5.25 21.050781 5.25 27.75 C 5.265625 28.75 6.722656 28.746094 6.75 27.75 C 6.75 21.585938 10.035156 15.894531 15.375 12.8125 C 16.035156 12.425781 15.785156 11.402344 14.960938 11.40625 Z M 32.984375 11.40625 C 32.1875 11.464844 31.996094 12.425781 32.625 12.8125 C 37.964844 15.894531 41.25 21.585938 41.25 27.75 C 41.25 28.75 42.753906 28.75 42.753906 27.75 C 42.753906 21.050781 39.175781 14.859375 33.375 11.511719 C 33.265625 11.445312 33.144531 11.410156 32.984375 11.40625 Z M 24 15.75 C 17.332031 15.75 11.996094 21.175781 11.996094 27.75 C 11.996094 34.324219 17.328125 39.75 24 39.75 C 30.675781 39.75 35.996094 34.34375 35.996094 27.75 C 35.996094 21.148438 30.667969 15.75 24 15.75 Z M 21.789062 17.484375 C 20.574219 18.59375 19.574219 19.890625 18.824219 21.328125 C 18.113281 20.996094 17.433594 20.597656 16.785156 20.128906 C 18.160156 18.828125 19.894531 17.894531 21.789062 17.484375 Z M 26.210938 17.488281 C 28.109375 17.894531 29.84375 18.824219 31.214844 20.121094 C 30.566406 20.59375 29.886719 21 29.175781 21.335938 C 28.425781 19.898438 27.425781 18.59375 26.210938 17.488281 Z M 24.746094 18.199219 C 25.988281 19.230469 27.019531 20.496094 27.773438 21.890625 C 26.796875 22.210938 25.777344 22.414062 24.746094 22.476562 Z M 23.246094 18.210938 L 23.246094 22.480469 C 22.21875 22.414062 21.199219 22.214844 20.226562 21.894531 C 20.976562 20.5 22.007812 19.238281 23.246094 18.210938 Z M 15.769531 21.234375 C 16.539062 21.808594 17.347656 22.300781 18.203125 22.703125 C 17.671875 24.0625 17.351562 25.507812 17.269531 27 L 13.53125 27 C 13.683594 24.828125 14.492188 22.839844 15.769531 21.234375 Z M 32.234375 21.238281 C 33.507812 22.84375 34.316406 24.828125 34.46875 27 L 30.726562 27 C 30.648438 25.507812 30.332031 24.0625 29.796875 22.699219 C 30.652344 22.300781 31.464844 21.808594 32.234375 21.238281 Z M 19.59375 23.265625 C 20.765625 23.667969 22 23.90625 23.246094 23.976562 L 23.246094 27 L 18.773438 27 C 18.851562 25.703125 19.128906 24.449219 19.59375 23.265625 Z M 28.40625 23.265625 C 28.867188 24.449219 29.148438 25.699219 29.226562 27 L 24.746094 27 L 24.746094 23.980469 C 25.996094 23.910156 27.226562 23.667969 28.40625 23.265625 Z M 13.527344 28.5 L 17.269531 28.5 C 17.351562 29.996094 17.671875 31.441406 18.207031 32.804688 C 17.351562 33.203125 16.535156 33.695312 15.765625 34.265625 C 14.492188 32.660156 13.679688 30.675781 13.527344 28.5 Z M 18.773438 28.5 L 23.246094 28.5 L 23.246094 31.523438 C 22 31.59375 20.769531 31.835938 19.59375 32.238281 C 19.128906 31.050781 18.851562 29.800781 18.773438 28.5 Z M 24.746094 28.5 L 29.226562 28.5 C 29.148438 29.800781 28.871094 31.050781 28.40625 32.238281 C 27.230469 31.835938 25.992188 31.589844 24.746094 31.523438 Z M 30.726562 28.5 L 34.46875 28.5 C 34.316406 30.675781 33.503906 32.65625 32.230469 34.265625 C 31.464844 33.691406 30.648438 33.203125 29.792969 32.804688 C 30.328125 31.441406 30.648438 29.996094 30.726562 28.5 Z M 7.5 30.75 C 5.425781 30.75 3.75 32.433594 3.75 34.496094 C 3.75 35.421875 4.085938 36.273438 4.648438 36.929688 C 2.773438 37.941406 1.5 39.941406 1.5 42.238281 L 1.5 43.113281 C 1.5 44.972656 2.988281 46.5 4.878906 46.5 L 10.125 46.5 C 11.984375 46.5 13.496094 45.007812 13.496094 43.113281 L 13.496094 42.238281 C 13.496094 39.941406 12.238281 37.949219 10.351562 36.933594 C 10.914062 36.277344 11.25 35.425781 11.25 34.496094 C 11.25 32.433594 9.574219 30.75 7.5 30.75 Z M 40.5 30.964844 C 38.417969 30.964844 36.75 32.652344 36.75 34.714844 C 36.75 35.578125 37.035156 36.363281 37.53125 37 C 35.707031 38.035156 34.496094 40.015625 34.496094 42.238281 L 34.496094 43.113281 C 34.496094 44.972656 35.992188 46.5 37.875 46.5 L 43.125 46.5 C 45.015625 46.5 46.5 44.972656 46.5 43.113281 L 46.5 42.238281 C 46.5 39.992188 45.292969 38.035156 43.46875 37 C 43.96875 36.363281 44.253906 35.5625 44.253906 34.714844 C 44.253906 32.652344 42.578125 30.964844 40.5 30.964844 Z M 7.5 32.25 C 8.730469 32.25 9.75 33.246094 9.75 34.496094 C 9.75 35.75 8.738281 36.75 7.5 36.75 C 6.265625 36.75 5.25 35.75 5.25 34.496094 C 5.25 33.246094 6.269531 32.25 7.5 32.25 Z M 40.5 32.464844 C 41.730469 32.464844 42.753906 33.460938 42.753906 34.714844 C 42.753906 35.964844 41.730469 36.96875 40.5 36.96875 C 39.269531 36.96875 38.25 35.964844 38.25 34.714844 C 38.25 33.460938 39.269531 32.464844 40.5 32.464844 Z M 23.246094 33.023438 L 23.246094 37.296875 C 22.007812 36.269531 20.976562 35.003906 20.226562 33.609375 C 21.199219 33.292969 22.21875 33.089844 23.246094 33.023438 Z M 24.746094 33.023438 C 25.777344 33.089844 26.792969 33.289062 27.769531 33.609375 C 27.019531 35.003906 25.996094 36.265625 24.753906 37.292969 Z M 18.824219 34.171875 C 19.574219 35.605469 20.574219 36.90625 21.785156 38.011719 C 19.867188 37.601562 18.15625 36.675781 16.785156 35.375 C 17.433594 34.90625 18.113281 34.503906 18.824219 34.171875 Z M 29.175781 34.171875 C 29.886719 34.503906 30.570312 34.90625 31.21875 35.378906 C 29.867188 36.660156 28.125 37.605469 26.207031 38.015625 C 27.425781 36.902344 28.425781 35.605469 29.175781 34.171875 Z M 8.957031 37.957031 C 10.707031 38.542969 11.996094 40.226562 11.996094 42.238281 L 11.996094 43.113281 C 11.996094 44.152344 11.175781 45 10.125 45 L 4.878906 45 C 3.839844 45 3 44.171875 3 43.113281 L 3 42.238281 C 3 40.226562 4.285156 38.546875 6.042969 37.957031 C 6.484375 38.140625 6.996094 38.25 7.5 38.25 C 8.007812 38.25 8.515625 38.140625 8.957031 37.957031 Z M 38.789062 38.050781 C 39.296875 38.308594 39.894531 38.46875 40.5 38.46875 C 41.105469 38.46875 41.703125 38.3125 42.210938 38.050781 C 43.828125 38.703125 45 40.320312 45 42.238281 L 45 43.113281 C 45 44.171875 44.160156 45 43.125 45 L 37.875 45 C 36.847656 45 35.996094 44.171875 35.996094 43.113281 L 35.996094 42.238281 C 35.996094 40.320312 37.199219 38.691406 38.789062 38.050781 Z M 17.054688 43.636719 C 16.277344 43.710938 16.109375 44.765625 16.835938 45.078125 C 21.421875 46.972656 26.570312 46.972656 31.160156 45.078125 C 31.914062 44.75 31.691406 43.6875 30.925781 43.636719 C 30.808594 43.636719 30.695312 43.640625 30.589844 43.695312 C 26.367188 45.4375 21.628906 45.4375 17.40625 43.695312 C 17.292969 43.644531 17.179688 43.628906 17.054688 43.636719" style="fill: rgb(25, 20, 20);"/></g></svg>