<svg xmlns="http://www.w3.org/2000/svg" xmlns:xlink="http://www.w3.org/1999/xlink" preserveAspectRatio="xMidYMid meet" version="1.0" viewBox="181.8 132.9 197.7 202.0" zoomAndPan="magnify" style="fill: rgb(0, 0, 0);" original_string_length="3346"><g id="__id345_sh16wtnq5g"><path d="M 363.550781 313.277344 L 363.59375 313.277344 Z M 215.625 149.0625 C 213.753906 149.0625 211.984375 149.910156 210.0625 151.59375 C 209.851562 151.792969 207.101562 154.402344 205.3125 156.105469 L 203.75 157.582031 C 194.625 166.113281 190.488281 181.46875 193.210938 196.710938 C 194.085938 201.632812 195.5 206.734375 197.414062 211.867188 C 207.058594 237.769531 225.367188 260.289062 239.03125 274.625 C 252.632812 289.054688 274.144531 308.542969 299.488281 319.558594 C 304.515625 321.742188 309.53125 323.429688 314.398438 324.570312 C 329.472656 328.101562 345.03125 324.792969 354.03125 316.140625 L 355.53125 314.714844 C 357.273438 313.070312 359.992188 310.496094 360.386719 310.117188 C 365.992188 304.351562 363.191406 299.558594 351.949219 288.125 L 349.136719 285.238281 C 342.015625 277.847656 330.066406 265.472656 319.964844 266.679688 C 317.21875 267.003906 314.351562 269.007812 311.316406 271.125 C 308.304688 273.226562 305.191406 275.398438 301.457031 276.582031 C 291.429688 279.761719 281.261719 277.671875 272.8125 270.710938 C 267.761719 266.546875 262.621094 261.675781 257.953125 256.636719 C 253.230469 251.769531 248.644531 246.378906 244.761719 241.117188 C 238.265625 232.3125 236.726562 222.046875 240.433594 212.203125 C 241.816406 208.535156 244.152344 205.542969 246.414062 202.648438 C 248.691406 199.730469 250.84375 196.976562 251.3125 194.25 C 253.050781 184.203125 241.339844 171.636719 234.339844 164.125 L 231.613281 161.164062 C 224.195312 153.050781 219.683594 149.0625 215.625 149.0625 Z M 326.5625 334.898438 C 321.523438 334.898438 316.679688 334.285156 312.359375 333.273438 C 306.972656 332.015625 301.441406 330.15625 295.921875 327.757812 C 269.1875 316.140625 246.699219 295.796875 232.542969 280.777344 C 218.316406 265.855469 199.207031 242.308594 189.035156 214.988281 C 186.933594 209.351562 185.378906 203.730469 184.40625 198.28125 C 181.828125 183.839844 183.949219 163.847656 197.644531 151.054688 L 199.15625 149.617188 C 201.0625 147.808594 204.027344 144.992188 204.148438 144.886719 C 217.847656 132.859375 230.105469 146.261719 238.210938 155.132812 L 240.882812 158.03125 C 249.011719 166.753906 262.617188 181.355469 260.125 195.773438 C 259.269531 200.707031 256.183594 204.664062 253.460938 208.152344 C 251.527344 210.625 249.699219 212.964844 248.800781 215.355469 C 246.160156 222.363281 247.253906 229.4375 251.957031 235.808594 C 255.605469 240.75 259.921875 245.824219 264.441406 250.484375 C 268.914062 255.3125 273.753906 259.894531 278.5 263.8125 C 284.613281 268.851562 291.617188 270.316406 298.757812 268.0625 C 301.191406 267.285156 303.621094 265.589844 306.195312 263.792969 C 309.828125 261.261719 313.9375 258.386719 318.914062 257.800781 C 333.488281 256.082031 347.300781 270.449219 355.574219 279.035156 L 358.328125 281.855469 C 366.75 290.425781 379.480469 303.378906 366.75 316.402344 C 366.550781 316.59375 363.5625 319.429688 361.675781 321.210938 L 360.222656 322.589844 C 350.804688 331.644531 338.183594 334.898438 326.5625 334.898438" style="fill: rgb(25, 20, 20);"/></g></svg>
